<?xml version="1.0" encoding="UTF-8" standalone="no" ?>
<!DOCTYPE svg PUBLIC "-//W3C//DTD SVG 1.1//EN" "http://www.w3.org/Graphics/SVG/1.1/DTD/svg11.dtd">
<svg xmlns="http://www.w3.org/2000/svg" xmlns:xlink="http://www.w3.org/1999/xlink" version="1.1" width="48" height="48" viewBox="0 0 48 48" xml:space="preserve">
<desc>Created with Fabric.js 3.6.6</desc>
<defs>
</defs>
<g transform="matrix(1 0 0 1 24.5 18.5)"  >
<path style="stroke: rgb(255,255,255); stroke-opacity: 0; stroke-width: 1; stroke-dasharray: ; stroke-linecap: butt; stroke-dashoffset: 0; stroke-linejoin: miter; stroke-miterlimit: 4; fill: rgb(255,255,255); fill-rule: nonzero; opacity: 1;" vector-effect="non-scaling-stroke"  transform=" translate(-24, -24)" d="M 28.1 21.8 h 13.4 v -9.3 H 28.1 Z m 6.75 -1.85 L 29.6 16 v -2 l 5.2 3.95 L 40 14 v 2 Z M 3 42 q -1.2 0 -2.1 -0.9 Q 0 40.2 0 39 V 9 q 0 -1.2 0.9 -2.1 Q 1.8 6 3 6 h 42 q 1.2 0 2.1 0.9 q 0.9 0.9 0.9 2.1 v 30 q 0 1.2 -0.9 2.1 q -0.9 0.9 -2.1 0.9 Z m 26.55 -3 H 45 V 9 H 3 v 30 h 0.35 q 2.2 -3.45 5.625 -5.45 t 7.475 -2 q 4.05 0 7.475 2 T 29.55 39 Z m -13.1 -11 q 2.5 0 4.25 -1.75 T 22.45 22 q 0 -2.5 -1.75 -4.25 T 16.45 16 q -2.5 0 -4.25 1.75 T 10.45 22 q 0 2.5 1.75 4.25 T 16.45 28 Z m -9.3 11 h 18.6 q -1.8 -2.1 -4.225 -3.275 Q 19.1 34.55 16.45 34.55 q -2.65 0 -5.075 1.175 Q 8.95 36.9 7.15 39 Z m 9.3 -14 q -1.25 0 -2.125 -0.875 T 13.45 22 q 0 -1.3 0.875 -2.15 Q 15.2 19 16.45 19 q 1.3 0 2.15 0.85 q 0.85 0.85 0.85 2.15 q 0 1.25 -0.85 2.125 T 16.45 25 Z M 24 24 Z" stroke-linecap="round" />
</g>
</svg>